<svg width="71" height="26" viewBox="0 0 71 26" fill="none" xmlns="http://www.w3.org/2000/svg">
<path d="M70.8204 21.1109V25.6721H62.3731V0.307678H66.9221V21.1109H70.8204ZM34.7258 12.7456C34.3738 12.9152 34.0058 12.9994 33.6469 13.0006V4.84287H33.67C34.0288 4.83999 36.7069 4.94902 36.7069 8.87729C36.7069 10.9306 35.7954 12.2258 34.7258 12.7456ZM21.3942 17.7538L22.6537 6.90826L23.9604 17.7538H21.3942ZM61.5798 4.93749V0.311717H48.6994L46.5792 15.7611L44.485 0.31114H39.8396L40.3594 4.43614C39.824 3.37922 37.9225 0.31114 33.7363 0.31114C33.7092 0.309986 29.0863 0.31114 29.0863 0.31114L29.0685 22.8296L25.6831 0.311717L19.5994 0.308832L16.0963 23.6396L16.0975 0.311717H10.2758L8.17692 13.4177L6.13231 0.31114H0.307693V25.6761H4.89423V13.45L6.98154 25.6761H9.41962L11.4763 13.45V25.6761H20.3188L20.8542 21.775H24.4138L24.9487 25.6761L33.6296 25.6808H33.6354V25.6761H33.6469V17.4434L34.7113 17.2877L36.9135 25.6819H41.4042L41.4031 25.6761H41.4158L38.5248 15.8408C39.989 14.7561 41.6437 12.0077 41.2035 9.37749V9.37633C41.2081 9.40979 43.9317 25.6923 43.9317 25.6923L49.2717 25.6767L52.9219 2.68633V25.6767H61.5798V21.1144H57.4698V15.299H61.5798V10.6663H57.4698V4.93691H61.5798V4.93749Z" fill="#FEFEFE"/>
</svg>
